<mxfile host="app.diagrams.net" agent="Mozilla/5.0 (Windows NT 10.0; Win64; x64; rv:137.0) Gecko/20100101 Firefox/137.0" version="26.2.8">
  <diagram name="Página-1" id="EmEgpDj--bSaSmBvqxqA">
    <mxGraphModel dx="2507" dy="916" grid="1" gridSize="10" guides="1" tooltips="1" connect="1" arrows="1" fold="1" page="1" pageScale="1" pageWidth="827" pageHeight="1169" math="0" shadow="0" adaptiveColors="none">
      <root>
        <mxCell id="0" />
        <mxCell id="1" parent="0" />
        <mxCell id="eUyYSn2h5uCzmRfc8cQw-1" value="&lt;font style=&quot;font-size: 12px;&quot;&gt;Preparação&lt;/font&gt;" style="swimlane;html=1;childLayout=stackLayout;horizontal=1;startSize=30;horizontalStack=0;rounded=0;shadow=0;labelBackgroundColor=none;strokeWidth=1;fontFamily=Verdana;fontSize=7;align=center;container=0;swimlaneLine=1;glass=0;swimlaneHead=1;swimlaneBody=1;fillColor=light-dark(#FFFFFF,#FFFFFF);strokeColor=light-dark(#000000,#000000);fontColor=light-dark(#000000,#000000);" vertex="1" parent="1">
          <mxGeometry x="-180" y="90" width="1200" height="550" as="geometry">
            <mxRectangle x="180" y="70" width="60" height="20" as="alternateBounds" />
          </mxGeometry>
        </mxCell>
        <mxCell id="eUyYSn2h5uCzmRfc8cQw-2" value="&lt;font style=&quot;font-size: 12px;&quot;&gt;Comitê de Governança Digital&lt;/font&gt;" style="swimlane;html=1;startSize=20;horizontal=0;fontFamily=Verdana;fontSize=7;container=0;strokeWidth=1;fillColor=light-dark(#FFFFFF,#FFFFFF);strokeColor=light-dark(#000000,#000000);swimlaneLine=1;shadow=0;fontColor=light-dark(#000000,#000000);" vertex="1" parent="eUyYSn2h5uCzmRfc8cQw-1">
          <mxGeometry y="30" width="1200" height="260" as="geometry">
            <mxRectangle y="20" width="680" height="30" as="alternateBounds" />
          </mxGeometry>
        </mxCell>
        <mxCell id="eUyYSn2h5uCzmRfc8cQw-3" style="edgeStyle=orthogonalEdgeStyle;rounded=0;orthogonalLoop=1;jettySize=auto;html=1;exitX=0.5;exitY=1;exitDx=0;exitDy=0;entryX=0.5;entryY=0;entryDx=0;entryDy=0;" edge="1" parent="eUyYSn2h5uCzmRfc8cQw-2">
          <mxGeometry relative="1" as="geometry">
            <mxPoint x="1145" y="95.69999999999999" as="targetPoint" />
          </mxGeometry>
        </mxCell>
        <mxCell id="eUyYSn2h5uCzmRfc8cQw-4" style="edgeStyle=orthogonalEdgeStyle;rounded=0;orthogonalLoop=1;jettySize=auto;html=1;exitX=0.5;exitY=1;exitDx=0;exitDy=0;entryX=0.5;entryY=0;entryDx=0;entryDy=0;" edge="1" parent="eUyYSn2h5uCzmRfc8cQw-2">
          <mxGeometry relative="1" as="geometry">
            <mxPoint x="1245" y="95.69999999999999" as="targetPoint" />
          </mxGeometry>
        </mxCell>
        <mxCell id="eUyYSn2h5uCzmRfc8cQw-5" style="edgeStyle=orthogonalEdgeStyle;rounded=0;orthogonalLoop=1;jettySize=auto;html=1;exitX=1;exitY=0.5;exitDx=0;exitDy=0;entryX=0;entryY=0.5;entryDx=0;entryDy=0;" edge="1" parent="eUyYSn2h5uCzmRfc8cQw-2">
          <mxGeometry relative="1" as="geometry">
            <mxPoint x="1230" y="37.95308510638307" as="sourcePoint" />
          </mxGeometry>
        </mxCell>
        <mxCell id="eUyYSn2h5uCzmRfc8cQw-92" value="" style="edgeStyle=orthogonalEdgeStyle;rounded=0;orthogonalLoop=1;jettySize=auto;html=1;" edge="1" parent="eUyYSn2h5uCzmRfc8cQw-2" source="eUyYSn2h5uCzmRfc8cQw-18" target="eUyYSn2h5uCzmRfc8cQw-85">
          <mxGeometry relative="1" as="geometry" />
        </mxCell>
        <mxCell id="eUyYSn2h5uCzmRfc8cQw-18" value="&lt;font style=&quot;font-size: 10px;&quot;&gt;Definir a abrangência e período do PDTIC&lt;/font&gt;" style="rounded=1;whiteSpace=wrap;html=1;absoluteArcSize=1;arcSize=14;strokeWidth=1;fillColor=#f9f7ed;strokeColor=#36393d;swimlaneLine=1;shadow=0;" vertex="1" parent="eUyYSn2h5uCzmRfc8cQw-2">
          <mxGeometry x="130" y="70" width="100" height="67.49" as="geometry" />
        </mxCell>
        <mxCell id="eUyYSn2h5uCzmRfc8cQw-93" value="" style="edgeStyle=orthogonalEdgeStyle;rounded=0;orthogonalLoop=1;jettySize=auto;html=1;dashed=1;dashPattern=8 8;" edge="1" parent="eUyYSn2h5uCzmRfc8cQw-2" source="eUyYSn2h5uCzmRfc8cQw-85" target="eUyYSn2h5uCzmRfc8cQw-65">
          <mxGeometry relative="1" as="geometry" />
        </mxCell>
        <mxCell id="eUyYSn2h5uCzmRfc8cQw-85" value="&lt;font style=&quot;font-size: 10px;&quot;&gt;Definir a abrangência e período do PDTIC&lt;/font&gt;" style="rounded=1;whiteSpace=wrap;html=1;absoluteArcSize=1;arcSize=14;strokeWidth=1;fillColor=#f9f7ed;strokeColor=#36393d;swimlaneLine=1;shadow=0;" vertex="1" parent="eUyYSn2h5uCzmRfc8cQw-2">
          <mxGeometry x="280" y="70" width="100" height="67.49" as="geometry" />
        </mxCell>
        <mxCell id="eUyYSn2h5uCzmRfc8cQw-65" value="&lt;font style=&quot;font-size: 10px;&quot;&gt;Portaria de designação da EqEPDTIC&lt;/font&gt;" style="strokeWidth=1;html=1;shape=mxgraph.flowchart.document2;whiteSpace=wrap;size=0.25;verticalAlign=top;fillColor=#cce5ff;strokeColor=#36393d;swimlaneLine=1;shadow=0;" vertex="1" parent="eUyYSn2h5uCzmRfc8cQw-2">
          <mxGeometry x="430" y="64.02000000000001" width="70" height="79.46" as="geometry" />
        </mxCell>
        <mxCell id="eUyYSn2h5uCzmRfc8cQw-101" value="" style="edgeStyle=orthogonalEdgeStyle;rounded=0;orthogonalLoop=1;jettySize=auto;html=1;dashed=1;dashPattern=8 8;" edge="1" parent="eUyYSn2h5uCzmRfc8cQw-2" source="eUyYSn2h5uCzmRfc8cQw-94" target="eUyYSn2h5uCzmRfc8cQw-8">
          <mxGeometry relative="1" as="geometry" />
        </mxCell>
        <mxCell id="eUyYSn2h5uCzmRfc8cQw-102" value="" style="edgeStyle=orthogonalEdgeStyle;rounded=0;orthogonalLoop=1;jettySize=auto;html=1;" edge="1" parent="eUyYSn2h5uCzmRfc8cQw-2" source="eUyYSn2h5uCzmRfc8cQw-94" target="eUyYSn2h5uCzmRfc8cQw-9">
          <mxGeometry relative="1" as="geometry" />
        </mxCell>
        <mxCell id="eUyYSn2h5uCzmRfc8cQw-94" value="&lt;font style=&quot;font-size: 10px;&quot;&gt;Elaborar o PT-PDTIC&lt;/font&gt;" style="rounded=1;whiteSpace=wrap;html=1;absoluteArcSize=1;arcSize=14;strokeWidth=1;fillColor=#f9f7ed;strokeColor=#36393d;swimlaneLine=1;shadow=0;" vertex="1" parent="eUyYSn2h5uCzmRfc8cQw-2">
          <mxGeometry x="965" y="40" width="100" height="67.49" as="geometry" />
        </mxCell>
        <mxCell id="eUyYSn2h5uCzmRfc8cQw-8" value="&lt;font style=&quot;font-size: 10px;&quot;&gt;PT-PDTIC (aprovado)&lt;/font&gt;" style="strokeWidth=1;html=1;shape=mxgraph.flowchart.document2;whiteSpace=wrap;size=0.25;verticalAlign=top;fillColor=#cce5ff;strokeColor=#36393d;swimlaneLine=1;shadow=0;" vertex="1" parent="eUyYSn2h5uCzmRfc8cQw-2">
          <mxGeometry x="980" y="150.00000000000003" width="70" height="79.46" as="geometry" />
        </mxCell>
        <mxCell id="eUyYSn2h5uCzmRfc8cQw-9" value="&lt;font style=&quot;font-size: 10px;&quot;&gt;Fim&lt;/font&gt;" style="strokeWidth=1;html=1;shape=mxgraph.flowchart.terminator;whiteSpace=wrap;fillColor=#ffcccc;strokeColor=#36393d;swimlaneLine=1;shadow=0;" vertex="1" parent="eUyYSn2h5uCzmRfc8cQw-2">
          <mxGeometry x="1110" y="58.47999999999999" width="60" height="30.54" as="geometry" />
        </mxCell>
        <mxCell id="eUyYSn2h5uCzmRfc8cQw-16" value="&lt;font style=&quot;font-size: 10px;&quot;&gt;Início&lt;/font&gt;" style="strokeWidth=1;html=1;shape=mxgraph.flowchart.start_2;whiteSpace=wrap;fillColor=#cdeb8b;strokeColor=#36393d;swimlaneLine=1;shadow=0;" vertex="1" parent="eUyYSn2h5uCzmRfc8cQw-2">
          <mxGeometry x="40" y="82.5" width="40" height="42.5" as="geometry" />
        </mxCell>
        <mxCell id="eUyYSn2h5uCzmRfc8cQw-91" value="" style="edgeStyle=orthogonalEdgeStyle;rounded=0;orthogonalLoop=1;jettySize=auto;html=1;" edge="1" parent="eUyYSn2h5uCzmRfc8cQw-2" source="eUyYSn2h5uCzmRfc8cQw-16" target="eUyYSn2h5uCzmRfc8cQw-18">
          <mxGeometry relative="1" as="geometry" />
        </mxCell>
        <mxCell id="eUyYSn2h5uCzmRfc8cQw-13" value="&lt;font style=&quot;font-size: 12px;&quot;&gt;EqEPDTIC&lt;/font&gt;" style="swimlane;html=1;startSize=20;horizontal=0;fontFamily=Verdana;fontSize=7;container=0;strokeWidth=1;fillColor=light-dark(#FFFFFF,#FFFFFF);strokeColor=light-dark(#000000,#000000);swimlaneLine=1;shadow=0;fontColor=light-dark(#000000,#000000);" vertex="1" parent="eUyYSn2h5uCzmRfc8cQw-1">
          <mxGeometry y="290" width="1200" height="260" as="geometry" />
        </mxCell>
        <mxCell id="eUyYSn2h5uCzmRfc8cQw-14" style="edgeStyle=orthogonalEdgeStyle;rounded=0;orthogonalLoop=1;jettySize=auto;html=1;exitX=1;exitY=0.5;exitDx=0;exitDy=0;entryX=0;entryY=0.5;entryDx=0;entryDy=0;" edge="1" parent="eUyYSn2h5uCzmRfc8cQw-13">
          <mxGeometry relative="1" as="geometry">
            <mxPoint x="1000" y="81.38499999999999" as="sourcePoint" />
          </mxGeometry>
        </mxCell>
        <mxCell id="eUyYSn2h5uCzmRfc8cQw-81" value="" style="edgeStyle=orthogonalEdgeStyle;rounded=0;orthogonalLoop=1;jettySize=auto;html=1;" edge="1" parent="eUyYSn2h5uCzmRfc8cQw-13" target="eUyYSn2h5uCzmRfc8cQw-70">
          <mxGeometry relative="1" as="geometry">
            <mxPoint x="500" y="60" as="sourcePoint" />
          </mxGeometry>
        </mxCell>
        <mxCell id="eUyYSn2h5uCzmRfc8cQw-82" value="" style="edgeStyle=orthogonalEdgeStyle;rounded=0;orthogonalLoop=1;jettySize=auto;html=1;" edge="1" parent="eUyYSn2h5uCzmRfc8cQw-13" target="eUyYSn2h5uCzmRfc8cQw-69">
          <mxGeometry relative="1" as="geometry">
            <mxPoint x="640" y="60.820000000000164" as="sourcePoint" />
          </mxGeometry>
        </mxCell>
        <mxCell id="eUyYSn2h5uCzmRfc8cQw-83" value="" style="edgeStyle=orthogonalEdgeStyle;rounded=0;orthogonalLoop=1;jettySize=auto;html=1;" edge="1" parent="eUyYSn2h5uCzmRfc8cQw-13" target="eUyYSn2h5uCzmRfc8cQw-68">
          <mxGeometry relative="1" as="geometry">
            <mxPoint x="780" y="60.820000000000164" as="sourcePoint" />
          </mxGeometry>
        </mxCell>
        <mxCell id="eUyYSn2h5uCzmRfc8cQw-77" value="&lt;font style=&quot;font-size: 10px;&quot;&gt;Lista dos documentos de referência&lt;/font&gt;" style="strokeWidth=1;html=1;shape=mxgraph.flowchart.document2;whiteSpace=wrap;size=0.25;verticalAlign=top;fillColor=#cce5ff;strokeColor=#36393d;swimlaneLine=1;shadow=0;" vertex="1" parent="eUyYSn2h5uCzmRfc8cQw-13">
          <mxGeometry x="430" y="140.00000000000003" width="70" height="79.46" as="geometry" />
        </mxCell>
        <mxCell id="eUyYSn2h5uCzmRfc8cQw-76" value="&lt;font style=&quot;font-size: 10px;&quot;&gt;Lista de estratégias da organização&lt;/font&gt;" style="strokeWidth=1;html=1;shape=mxgraph.flowchart.document2;whiteSpace=wrap;size=0.25;verticalAlign=top;fillColor=#cce5ff;strokeColor=#36393d;swimlaneLine=1;shadow=0;" vertex="1" parent="eUyYSn2h5uCzmRfc8cQw-13">
          <mxGeometry x="565" y="140.00000000000003" width="70" height="79.46" as="geometry" />
        </mxCell>
        <mxCell id="eUyYSn2h5uCzmRfc8cQw-75" value="&lt;font style=&quot;font-size: 10px;&quot;&gt;Lista dos princípios e diretrizes&lt;/font&gt;" style="strokeWidth=1;html=1;shape=mxgraph.flowchart.document2;whiteSpace=wrap;size=0.25;verticalAlign=top;fillColor=#cce5ff;strokeColor=#36393d;swimlaneLine=1;shadow=0;" vertex="1" parent="eUyYSn2h5uCzmRfc8cQw-13">
          <mxGeometry x="660" y="140.00000000000003" width="70" height="79.46" as="geometry" />
        </mxCell>
        <mxCell id="eUyYSn2h5uCzmRfc8cQw-74" value="&lt;font style=&quot;font-size: 10px;&quot;&gt;Inventário de Necessidades (parcial)&lt;/font&gt;" style="strokeWidth=1;html=1;shape=mxgraph.flowchart.document2;whiteSpace=wrap;size=0.25;verticalAlign=top;fillColor=#cce5ff;strokeColor=#36393d;swimlaneLine=1;shadow=0;" vertex="1" parent="eUyYSn2h5uCzmRfc8cQw-13">
          <mxGeometry x="750" y="140.00000000000003" width="70" height="79.46" as="geometry" />
        </mxCell>
        <mxCell id="eUyYSn2h5uCzmRfc8cQw-78" value="&lt;font style=&quot;font-size: 10px;&quot;&gt;PT-PDTIC&lt;/font&gt;" style="strokeWidth=1;html=1;shape=mxgraph.flowchart.document2;whiteSpace=wrap;size=0.25;verticalAlign=top;fillColor=#cce5ff;strokeColor=#36393d;swimlaneLine=1;shadow=0;" vertex="1" parent="eUyYSn2h5uCzmRfc8cQw-13">
          <mxGeometry x="850" y="140.00000000000003" width="70" height="79.46" as="geometry" />
        </mxCell>
        <mxCell id="eUyYSn2h5uCzmRfc8cQw-96" value="" style="edgeStyle=orthogonalEdgeStyle;rounded=0;orthogonalLoop=1;jettySize=auto;html=1;" edge="1" parent="eUyYSn2h5uCzmRfc8cQw-13" source="eUyYSn2h5uCzmRfc8cQw-86" target="eUyYSn2h5uCzmRfc8cQw-87">
          <mxGeometry relative="1" as="geometry" />
        </mxCell>
        <mxCell id="eUyYSn2h5uCzmRfc8cQw-86" value="&lt;font style=&quot;font-size: 10px;&quot;&gt;Descrever a metodologia de elaboração&lt;/font&gt;" style="rounded=1;whiteSpace=wrap;html=1;absoluteArcSize=1;arcSize=14;strokeWidth=1;fillColor=#f9f7ed;strokeColor=#36393d;swimlaneLine=1;shadow=0;" vertex="1" parent="eUyYSn2h5uCzmRfc8cQw-13">
          <mxGeometry x="280" y="40" width="100" height="67.49" as="geometry" />
        </mxCell>
        <mxCell id="eUyYSn2h5uCzmRfc8cQw-97" value="" style="edgeStyle=orthogonalEdgeStyle;rounded=0;orthogonalLoop=1;jettySize=auto;html=1;" edge="1" parent="eUyYSn2h5uCzmRfc8cQw-13" source="eUyYSn2h5uCzmRfc8cQw-87" target="eUyYSn2h5uCzmRfc8cQw-88">
          <mxGeometry relative="1" as="geometry" />
        </mxCell>
        <mxCell id="eUyYSn2h5uCzmRfc8cQw-103" value="" style="edgeStyle=orthogonalEdgeStyle;rounded=0;orthogonalLoop=1;jettySize=auto;html=1;dashed=1;dashPattern=8 8;" edge="1" parent="eUyYSn2h5uCzmRfc8cQw-13" source="eUyYSn2h5uCzmRfc8cQw-87" target="eUyYSn2h5uCzmRfc8cQw-77">
          <mxGeometry relative="1" as="geometry" />
        </mxCell>
        <mxCell id="eUyYSn2h5uCzmRfc8cQw-87" value="&lt;font style=&quot;font-size: 10px;&quot;&gt;Consolidar documentos e referência&lt;/font&gt;" style="rounded=1;whiteSpace=wrap;html=1;absoluteArcSize=1;arcSize=14;strokeWidth=1;fillColor=#f9f7ed;strokeColor=#36393d;swimlaneLine=1;shadow=0;" vertex="1" parent="eUyYSn2h5uCzmRfc8cQw-13">
          <mxGeometry x="415" y="40" width="100" height="67.49" as="geometry" />
        </mxCell>
        <mxCell id="eUyYSn2h5uCzmRfc8cQw-98" value="" style="edgeStyle=orthogonalEdgeStyle;rounded=0;orthogonalLoop=1;jettySize=auto;html=1;" edge="1" parent="eUyYSn2h5uCzmRfc8cQw-13" source="eUyYSn2h5uCzmRfc8cQw-88" target="eUyYSn2h5uCzmRfc8cQw-89">
          <mxGeometry relative="1" as="geometry" />
        </mxCell>
        <mxCell id="eUyYSn2h5uCzmRfc8cQw-104" value="" style="edgeStyle=orthogonalEdgeStyle;rounded=0;orthogonalLoop=1;jettySize=auto;html=1;dashed=1;dashPattern=8 8;" edge="1" parent="eUyYSn2h5uCzmRfc8cQw-13" source="eUyYSn2h5uCzmRfc8cQw-88" target="eUyYSn2h5uCzmRfc8cQw-76">
          <mxGeometry relative="1" as="geometry" />
        </mxCell>
        <mxCell id="eUyYSn2h5uCzmRfc8cQw-88" value="&lt;font style=&quot;font-size: 10px;&quot;&gt;Identificar estratégias de organização&lt;/font&gt;" style="rounded=1;whiteSpace=wrap;html=1;absoluteArcSize=1;arcSize=14;strokeWidth=1;fillColor=#f9f7ed;strokeColor=#36393d;swimlaneLine=1;shadow=0;" vertex="1" parent="eUyYSn2h5uCzmRfc8cQw-13">
          <mxGeometry x="550" y="40" width="100" height="67.49" as="geometry" />
        </mxCell>
        <mxCell id="eUyYSn2h5uCzmRfc8cQw-99" value="" style="edgeStyle=orthogonalEdgeStyle;rounded=0;orthogonalLoop=1;jettySize=auto;html=1;" edge="1" parent="eUyYSn2h5uCzmRfc8cQw-13" source="eUyYSn2h5uCzmRfc8cQw-89" target="eUyYSn2h5uCzmRfc8cQw-90">
          <mxGeometry relative="1" as="geometry" />
        </mxCell>
        <mxCell id="eUyYSn2h5uCzmRfc8cQw-105" style="edgeStyle=orthogonalEdgeStyle;rounded=0;orthogonalLoop=1;jettySize=auto;html=1;exitX=0.5;exitY=1;exitDx=0;exitDy=0;dashed=1;dashPattern=8 8;" edge="1" parent="eUyYSn2h5uCzmRfc8cQw-13" source="eUyYSn2h5uCzmRfc8cQw-89" target="eUyYSn2h5uCzmRfc8cQw-75">
          <mxGeometry relative="1" as="geometry">
            <Array as="points">
              <mxPoint x="740" y="120" />
              <mxPoint x="695" y="120" />
            </Array>
          </mxGeometry>
        </mxCell>
        <mxCell id="eUyYSn2h5uCzmRfc8cQw-89" value="&lt;font style=&quot;font-size: 10px;&quot;&gt;Identificar princípios e diretrizes&lt;/font&gt;" style="rounded=1;whiteSpace=wrap;html=1;absoluteArcSize=1;arcSize=14;strokeWidth=1;fillColor=#f9f7ed;strokeColor=#36393d;swimlaneLine=1;shadow=0;" vertex="1" parent="eUyYSn2h5uCzmRfc8cQw-13">
          <mxGeometry x="690" y="40" width="100" height="67.49" as="geometry" />
        </mxCell>
        <mxCell id="eUyYSn2h5uCzmRfc8cQw-90" value="&lt;font style=&quot;font-size: 10px;&quot;&gt;Elaborar o PT-PDTIC&lt;/font&gt;" style="rounded=1;whiteSpace=wrap;html=1;absoluteArcSize=1;arcSize=14;strokeWidth=1;fillColor=#f9f7ed;strokeColor=#36393d;swimlaneLine=1;shadow=0;" vertex="1" parent="eUyYSn2h5uCzmRfc8cQw-13">
          <mxGeometry x="835" y="40" width="100" height="67.49" as="geometry" />
        </mxCell>
        <mxCell id="eUyYSn2h5uCzmRfc8cQw-106" style="edgeStyle=orthogonalEdgeStyle;rounded=0;orthogonalLoop=1;jettySize=auto;html=1;exitX=0.5;exitY=1;exitDx=0;exitDy=0;entryX=0.5;entryY=0;entryDx=0;entryDy=0;entryPerimeter=0;dashed=1;dashPattern=8 8;" edge="1" parent="eUyYSn2h5uCzmRfc8cQw-13" source="eUyYSn2h5uCzmRfc8cQw-89" target="eUyYSn2h5uCzmRfc8cQw-74">
          <mxGeometry relative="1" as="geometry">
            <Array as="points">
              <mxPoint x="740" y="120" />
              <mxPoint x="785" y="120" />
            </Array>
          </mxGeometry>
        </mxCell>
        <mxCell id="eUyYSn2h5uCzmRfc8cQw-107" style="edgeStyle=orthogonalEdgeStyle;rounded=0;orthogonalLoop=1;jettySize=auto;html=1;exitX=0.5;exitY=1;exitDx=0;exitDy=0;entryX=0.5;entryY=0;entryDx=0;entryDy=0;entryPerimeter=0;dashed=1;dashPattern=8 8;" edge="1" parent="eUyYSn2h5uCzmRfc8cQw-13" source="eUyYSn2h5uCzmRfc8cQw-90" target="eUyYSn2h5uCzmRfc8cQw-78">
          <mxGeometry relative="1" as="geometry" />
        </mxCell>
        <mxCell id="eUyYSn2h5uCzmRfc8cQw-95" style="edgeStyle=orthogonalEdgeStyle;rounded=0;orthogonalLoop=1;jettySize=auto;html=1;exitX=0.5;exitY=1;exitDx=0;exitDy=0;" edge="1" parent="eUyYSn2h5uCzmRfc8cQw-1" source="eUyYSn2h5uCzmRfc8cQw-85" target="eUyYSn2h5uCzmRfc8cQw-86">
          <mxGeometry relative="1" as="geometry" />
        </mxCell>
        <mxCell id="eUyYSn2h5uCzmRfc8cQw-100" style="edgeStyle=orthogonalEdgeStyle;rounded=0;orthogonalLoop=1;jettySize=auto;html=1;exitX=0.5;exitY=0;exitDx=0;exitDy=0;entryX=0;entryY=0.5;entryDx=0;entryDy=0;" edge="1" parent="eUyYSn2h5uCzmRfc8cQw-1" source="eUyYSn2h5uCzmRfc8cQw-90" target="eUyYSn2h5uCzmRfc8cQw-94">
          <mxGeometry relative="1" as="geometry" />
        </mxCell>
      </root>
    </mxGraphModel>
  </diagram>
</mxfile>
